#!OML:ASF F:\VICON\USERDATA\INSTALL\rory3\rory3.ASF
:FULLY-SPECIFIED
:DEGREES
2366
root 2.04767 15.7602 -3.04567 335.942 -68.3974 5.89843
lowerback 20.4225 1.73293 -0.614871
upperback 11.6208 1.50976 2.65572
thorax 1.08149 0.344985 2.88118
lowerneck -20.151 7.92229 -5.24024
upperneck 15.307 12.2585 0.109541
head 7.68455 5.5134 2.329
rclavicle -1.25234e-014 1.90833e-014
rhumerus -26.5723 18.3118 -86.2112
rradius 85.0032
rwrist 26.2943
rhand -24.2129 10.3546
rfingers 7.12502
rthumb 2.27178 -19.613
lclavicle -1.25234e-014 1.90833e-014
lhumerus -25.356 -26.3122 93.0874
lradius 71.0733
lwrist 4.88299
lhand -33.3688 12.1801
lfingers 7.12502
lthumb -6.57024 42.0582
rfemur -51.6041 -17.0619 15.7531
rtibia 94.8768
rfoot 14.1453 -13.9043
rtoes 13.3251
lfemur -47.9582 15.1605 -13.6606
ltibia 101.199
lfoot 17.0022 -2.1377
ltoes -10.1881
2367
root 2.04984 15.7633 -3.04589 335.848 -68.4227 6.00225
lowerback 20.4187 1.73536 -0.672279
upperback 11.58 1.50713 2.62995
thorax 1.03787 0.343939 2.88636
lowerneck -20.0681 7.95104 -5.14767
upperneck 15.1313 12.2643 0.074089
head 7.61988 5.52668 2.29407
rclavicle -1.0635e-013 3.97569e-014
rhumerus -26.6436 18.3407 -86.2942
rradius 84.9588
rwrist 26.3542
rhand -24.1078 10.3995
rfingers 7.12502
rthumb 2.37321 -19.5671
lclavicle -1.0635e-013 3.97569e-014
lhumerus -25.4532 -26.2891 93.0777
lradius 71.0458
lwrist 4.75569
lhand -33.2426 12.2825
lfingers 7.12502
lthumb -6.44845 42.1643
rfemur -51.6443 -17.2245 15.7543
rtibia 95.5982
rfoot 14.0974 -13.952
rtoes 14.0623
lfemur -47.9106 15.3425 -13.5714
ltibia 101.796
lfoot 16.973 -2.07341
ltoes -9.86316
2368
root 2.05417 15.766 -3.04524 335.842 -68.4466 6.06243
lowerback 20.3779 1.7276 -0.681176
upperback 11.5375 1.50021 2.62434
thorax 1.01187 0.342613 2.88672
lowerneck -20.0674 7.97703 -5.04516
upperneck 15.0554 12.2859 -0.0236143
head 7.60716 5.53545 2.24761
rclavicle -2.28602e-014 2.8625e-014
rhumerus -26.7268 18.4155 -86.3193
rradius 84.9352
rwrist 26.4414
rhand -24.1299 10.407
rfingers 7.12502
rthumb 2.35188 -19.5598
lclavicle -2.28602e-014 2.8625e-014
lhumerus -25.5398 -26.2872 93.1242
lradius 71.0496
lwrist 4.73176
lhand -33.239 12.5164
lfingers 7.12502
lthumb -6.44494 42.3983
rfemur -51.7288 -17.3236 15.7553
rtibia 96.2891
rfoot 13.9555 -13.9923
rtoes 15.6522
lfemur -47.9288 15.4377 -13.4839
ltibia 102.38
lfoot 17.07 -2.04497
ltoes -8.24081
2369
root 2.05973 15.7712 -3.0466 335.872 -68.4151 6.11796
lowerback 20.2731 1.71039 -0.707517
upperback 11.5169 1.47739 2.63099
thorax 1.04214 0.331276 2.91398
lowerneck -20.1282 8.01011 -4.95172
upperneck 14.993 12.3342 -0.174431
head 7.612 5.54905 2.19209
rclavicle 2.96189e-014 1.51076e-014
rhumerus -26.7541 18.4568 -86.3229
rradius 84.9034
rwrist 26.6195
rhand -24.228 10.3815
rfingers 7.12502
rthumb 2.25712 -19.5863
lclavicle 2.96189e-014 1.51076e-014
lhumerus -25.5773 -26.4131 93.1383
lradius 71.0693
lwrist 4.8519
lhand -33.3808 12.6871
lfingers 7.12502
lthumb -6.5818 42.5648
rfemur -51.8539 -17.4693 15.7407
rtibia 96.9747
rfoot 13.9432 -13.9127
rtoes 17.9225
lfemur -48.0361 15.4977 -13.4601
ltibia 102.955
lfoot 17.1466 -2.00941
ltoes -6.86494
2370
root 2.06366 15.7736 -3.04864 335.82 -68.3655 6.18664
lowerback 20.2486 1.70716 -0.759731
upperback 11.5004 1.46706 2.64433
thorax 1.03541 0.324224 2.95992
lowerneck -20.1587 8.04085 -4.90706
upperneck 14.9566 12.3878 -0.301358
head 7.6157 5.5642 2.15137
rclavicle 6.2816e-014 -6.36111e-015
rhumerus -26.7798 18.4068 -86.3452
rradius 84.8661
rwrist 26.8598
rhand -24.3389 10.3821
rfingers 7.12502
rthumb 2.15005 -19.5868
lclavicle 6.2816e-014 -6.36111e-015
lhumerus -25.6291 -26.5061 93.1777
lradius 71.0473
lwrist 4.99992
lhand -33.3821 12.6174
lfingers 7.12502
lthumb -6.58309 42.4951
rfemur -51.9477 -17.7126 15.7285
rtibia 97.6828
rfoot 14.1815 -13.7118
rtoes 18.0653
lfemur -48.0206 15.5458 -13.4227
ltibia 103.522
lfoot 16.8368 -1.34542
ltoes -5.03141
2371
root 2.06406 15.7736 -3.04859 335.758 -68.3577 6.21609
lowerback 20.2555 1.71149 -0.793926
upperback 11.4762 1.46964 2.68031
thorax 1.00381 0.323845 3.01698
lowerneck -20.1698 8.05355 -5.05904
upperneck 14.9885 12.437 -0.233976
head 7.61258 5.58479 2.20183
rclavicle -4.17448e-015 -2.22639e-014
rhumerus -26.8443 18.4035 -86.3431
rradius 84.8171
rwrist 27.008
rhand -24.4338 10.5049
rfingers 7.12502
rthumb 2.05839 -19.4649
lclavicle -4.17448e-015 -2.22639e-014
lhumerus -25.6999 -26.4483 93.2727
lradius 70.9652
lwrist 4.99374
lhand -33.5062 12.5066
lfingers 7.12502
lthumb -6.70286 42.3805
rfemur -51.9626 -17.9473 15.7746
rtibia 98.374
rfoot 14.477 -13.2873
rtoes 16.5738
lfemur -47.9153 15.6779 -13.3362
ltibia 104.063
lfoot 16.3774 -0.677947
ltoes -3.37761
2372
root 2.06575 15.7752 -3.04995 335.76 -68.3397 6.18575
lowerback 20.2695 1.71522 -0.793004
upperback 11.4487 1.47774 2.71979
thorax 0.965455 0.328055 3.05667
lowerneck -20.1532 8.02089 -5.23122
upperneck 14.9679 12.4242 -0.157852
head 7.58721 5.57834 2.2478
rclavicle -7.7526e-015 7.95139e-016
rhumerus -26.9225 18.381 -86.3044
rradius 84.8067
rwrist 27.0931
rhand -24.364 10.7108
rfingers 7.12502
rthumb 2.12583 -19.2584
lclavicle -7.7526e-015 7.95139e-016
lhumerus -25.7398 -26.4519 93.3367
lradius 70.8916
lwrist 4.93924
lhand -33.5383 12.2898
lfingers 7.12502
lthumb -6.73392 42.1627
rfemur -51.9567 -18.1273 15.8062
rtibia 99.0408
rfoot 14.5996 -13.11
rtoes 16.4811
lfemur -47.8161 15.826 -13.2645
ltibia 104.541
lfoot 16.4372 -1.44033
ltoes -5.98581
2373
root 2.07077 15.7758 -3.05315 335.728 -68.2558 6.20217
lowerback 20.3181 1.69577 -0.772172
upperback 11.4236 1.45807 2.70915
thorax 0.91548 0.32096 3.03653
lowerneck -20.1448 7.97361 -5.25716
upperneck 14.9294 12.3727 -0.199408
head 7.5762 5.54942 2.23093
rclavicle -2.22639e-014 3.18055e-015
rhumerus -26.9457 18.3039 -86.3098
rradius 84.7721
rwrist 27.2264
rhand -24.2518 10.9011
rfingers 7.12502
rthumb 2.2342 -19.067
lclavicle -2.22639e-014 3.18055e-015
lhumerus -25.7491 -26.4459 93.3296
lradius 70.8283
lwrist 4.85773
lhand -33.0801 11.9039
lfingers 7.12502
lthumb -6.29158 41.7905
rfemur -51.9934 -18.3557 15.7826
rtibia 99.6968
rfoot 14.5507 -13.2088
rtoes 16.6879
lfemur -47.7399 15.8699 -13.2349
ltibia 104.96
lfoot 16.8735 -3.11484
ltoes -11.4287
2374
root 2.07502 15.7745 -3.05558 335.59 -68.2045 6.39054
lowerback 20.2807 1.69743 -0.804718
upperback 11.4023 1.45793 2.67116
thorax 0.910881 0.32241 3.0146
lowerneck -20.1718 7.9597 -5.23944
upperneck 14.9396 12.354 -0.21462
head 7.58688 5.53897 2.22323
rclavicle 4.51241e-014 -2.38542e-014
rhumerus -26.936 18.1924 -86.3377
rradius 84.7436
rwrist 27.3184
rhand -23.9815 11.0041
rfingers 7.12502
rthumb 2.49519 -18.961
lclavicle 4.51241e-014 -2.38542e-014
lhumerus -25.7317 -26.4727 93.2992
lradius 70.734
lwrist 4.83701
lhand -32.631 11.5843
lfingers 7.12502
lthumb -5.85791 41.4833
rfemur -52.1209 -18.5758 15.7649
rtibia 100.335
rfoot 14.5454 -13.0975
rtoes 15.3474
lfemur -47.7393 15.9345 -13.2967
ltibia 105.373
lfoot 17.1116 -4.43198
ltoes -15.7864
2375
root 2.07922 15.7764 -3.05961 335.711 -68.197 6.27745
lowerback 20.2467 1.68978 -0.785407
upperback 11.4111 1.45114 2.70855
thorax 0.937609 0.318154 3.04528
lowerneck -20.377 7.98769 -5.33386
upperneck 15.1077 12.419 -0.100983
head 7.6611 5.56657 2.29639
rclavicle -1.33186e-014 2.8625e-014
rhumerus -26.9088 18.2319 -86.2584
rradius 84.7739
rwrist 27.363
rhand -23.8903 10.8935
rfingers 7.12502
rthumb 2.58329 -19.0706
lclavicle -1.33186e-014 2.8625e-014
lhumerus -25.6877 -26.5233 93.2855
lradius 70.7072
lwrist 4.99543
lhand -32.2989 11.4216
lfingers 7.12502
lthumb -5.53731 41.3293
rfemur -52.1791 -18.7387 15.8748
rtibia 100.928
rfoot 14.7257 -12.9517
rtoes 15.1536
lfemur -47.7565 16.0358 -13.2015
ltibia 105.8
lfoot 17.1518 -5.31868
ltoes -18.1486
2376
root 2.08401 15.7809 -3.06498 335.911 -68.1523 6.09103
lowerback 20.1771 1.67894 -0.753818
upperback 11.4381 1.44134 2.74959
thorax 1.00249 0.312143 3.07395
lowerneck -20.6023 8.00782 -5.38213
upperneck 15.2663 12.4703 -0.034638
head 7.74231 5.58518 2.34724
rclavicle -1.03368e-014 4.77083e-015
rhumerus -26.8738 18.2974 -86.1876
rradius 84.7946
rwrist 27.4494
rhand -24.0697 10.8075
rfingers 7.12502
rthumb 2.41003 -19.1586
lclavicle -1.03368e-014 4.77083e-015
lhumerus -25.5805 -26.5719 93.2757
lradius 70.6582
lwrist 5.15572
lhand -32.1826 11.4329
lfingers 7.12502
lthumb -5.42501 41.3435
rfemur -52.2655 -18.9192 15.9775
rtibia 101.506
rfoot 14.9921 -12.7992
rtoes 15.7714
lfemur -47.8096 16.1281 -13.0961
ltibia 106.168
lfoot 17.1961 -5.72249
ltoes -19.5648
2377
root 2.08833 15.7803 -3.07066 335.992 -68.0262 6.03187
lowerback 20.1292 1.63742 -0.812677
upperback 11.4373 1.37886 2.76197
thorax 1.02801 0.277776 3.13291
lowerneck -20.6088 8.02753 -5.32129
upperneck 15.2313 12.497 -0.1306
head 7.7419 5.59206 2.30986
rclavicle -9.74045e-015 2.54444e-014
rhumerus -26.864 18.3995 -86.1927
rradius 84.795
rwrist 27.4659
rhand -24.2365 10.7219
rfingers 7.12502
rthumb 2.24896 -19.246
lclavicle -9.74045e-015 2.54444e-014
lhumerus -25.5433 -26.4492 93.2771
lradius 70.6066
lwrist 5.20884
lhand -32.1577 11.5002
lfingers 7.12502
lthumb -5.40101 41.4114
rfemur -52.3709 -19.1685 15.9946
rtibia 102.082
rfoot 15.0854 -12.6753
rtoes 16.1861
lfemur -47.8495 16.1346 -13.0819
ltibia 106.474
lfoot 17.2973 -5.67428
ltoes -19.9053
2378
root 2.09133 15.7791 -3.07643 335.955 -67.9563 5.99975
lowerback 20.2033 1.6353 -0.835947
upperback 11.4405 1.37119 2.75908
thorax 0.994508 0.272636 3.14395
lowerneck -20.5388 8.0281 -5.2
upperneck 15.1314 12.4806 -0.271469
head 7.71531 5.58106 2.23851
rclavicle 2.98177e-014 5.56597e-015
rhumerus -26.8894 18.3751 -86.2204
rradius 84.8053
rwrist 27.4906
rhand -24.2846 10.6568
rfingers 7.12502
rthumb 2.20249 -19.3116
lclavicle 2.98177e-014 5.56597e-015
lhumerus -25.5453 -26.4041 93.2596
lradius 70.544
lwrist 5.15206
lhand -32.4172 11.5279
lfingers 7.12502
lthumb -5.65156 41.4325
rfemur -52.3349 -19.3634 16.0288
rtibia 102.612
rfoot 15.0639 -12.6402
rtoes 15.6928
lfemur -47.7087 16.149 -12.986
ltibia 106.719
lfoot 17.4398 -5.30734
ltoes -18.7397
